# xmcd
#
# Track frame offsets:
#	150
#	16398
#	29271
#	40419
#	57867
#	71040
#	85338
#	102186
#	116709
#	132132
#	146205
#	156753
#	171426
#	180699
#	197847
#
# Disc length: 2852 seconds
#
# Revision: 1
# Processed by: cddbd v1.5.2PL0 Copyright (c) Steve Scherf et al.
# Submitted via: audiograbber 1.83.01
#
DISCID=d80b220f
DTITLE=Alison Krauss and Union Station - Lonely Runs Both Ways
DYEAR=1900
DGENRE=
TTITLE0=Gravity
TTITLE1=Restless
TTITLE2=Rain Please Go Away
TTITLE3=Goodbye Is All We Have
TTITLE4=Unionhouse Branch
TTITLE5=Wouldn't Be So Bad
TTITLE6=Pastures of Plenty
TTITLE7=Crazy as Me
TTITLE8=Borderline
TTITLE9=My Poor Old Heart
TTITLE10=This Sad Song
TTITLE11=Doesn't Have to Be This Way
TTITLE12=I Don't Have to Live This Way
TTITLE13=If I Didn't Know Any Better
TTITLE14=A Living Prayer
EXTD=
EXTT0=
EXTT1=
EXTT2=
EXTT3=
EXTT4=
EXTT5=
EXTT6=
EXTT7=
EXTT8=
EXTT9=
EXTT10=
EXTT11=
EXTT12=
EXTT13=
EXTT14=
PLAYORDER=
